<svg width="1600" height="900" viewBox="0 0 1600 900" fill="none" xmlns="http://www.w3.org/2000/svg">
  <rect width="1600" height="900" fill="#1A1110"/>
  <rect width="1600" height="900" fill="url(#paint0_radial)"/>
  <rect x="124" y="147" width="1352" height="524" rx="32" fill="rgba(255,248,240,0.06)" stroke="rgba(255,248,240,0.14)"/>
  <rect x="185" y="210" width="428" height="398" rx="24" fill="#201313"/>
  <rect x="671" y="210" width="237" height="398" rx="24" fill="#2A1716"/>
  <rect x="962" y="210" width="449" height="398" rx="24" fill="#1A1010"/>
  <path d="M229 534L308 469L375 488L464 352L568 300" stroke="#F97316" stroke-width="16" stroke-linecap="round" stroke-linejoin="round"/>
  <path d="M229 469L308 413L375 427L464 267L568 243" stroke="#FDE68A" stroke-width="10" stroke-linecap="round" stroke-linejoin="round" opacity="0.85"/>
  <rect x="1013" y="264" width="345" height="31" rx="15.5" fill="#36201D"/>
  <rect x="1013" y="327" width="309" height="31" rx="15.5" fill="#36201D"/>
  <rect x="1013" y="390" width="345" height="31" rx="15.5" fill="#36201D"/>
  <rect x="1013" y="453" width="242" height="31" rx="15.5" fill="#36201D"/>
  <rect x="726" y="258" width="127" height="127" rx="20" fill="#F97316" fill-opacity="0.16"/>
  <rect x="726" y="432" width="127" height="127" rx="20" fill="#FDE68A" fill-opacity="0.16"/>
  <text x="124" y="754" fill="#FEF6EE" font-family="Georgia, 'Times New Roman', serif" font-size="90" font-style="italic">Attention Ledger</text>
  <text x="127" y="810" fill="#F6CFA8" font-family="Arial, sans-serif" font-size="28" letter-spacing="4">A NEWSROOM PROJECT ABOUT WHO GETS COVERED, WHO DOESN'T, AND WHY</text>
  <defs>
    <radialGradient id="paint0_radial" cx="0" cy="0" r="1" gradientUnits="userSpaceOnUse" gradientTransform="translate(1246 177) rotate(133.615) scale(982.63 1072.78)">
      <stop stop-color="#8A3B12"/>
      <stop offset="1" stop-color="#1A1110"/>
    </radialGradient>
  </defs>
</svg>
